<?xml version="1.0" standalone="no"?><!-- Generator: Gravit.io --><svg xmlns="http://www.w3.org/2000/svg" xmlns:xlink="http://www.w3.org/1999/xlink" style="isolation:isolate" viewBox="0 0 237.45 66.796" width="237.45" height="66.796"><defs><clipPath id="_clipPath_zSnsY1nd6HoQ2hLQ0jO9A1VVg2LYJka8"><rect width="237.45" height="66.796"/></clipPath></defs><g clip-path="url(#_clipPath_zSnsY1nd6HoQ2hLQ0jO9A1VVg2LYJka8)"><path d=" M 3.737 5.691 L 6.189 5.691 L 6.189 8.167 L 3.737 8.167 L 3.737 5.691 L 3.737 5.691 L 3.737 5.691 Z  M 25.312 35.506 C 27.736 35.506 29.701 37.303 29.701 39.52 C 29.701 41.737 27.736 43.534 25.312 43.534 C 24.4 43.534 23.553 43.279 22.851 42.843 L 22.851 36.197 C 23.553 35.761 24.4 35.506 25.312 35.506 L 25.312 35.506 L 25.312 35.506 Z  M 6.189 3.331 L 8.507 3.331 L 8.507 5.672 L 6.189 5.672 L 6.189 3.331 L 6.189 3.331 L 6.189 3.331 Z  M 24.379 20.23 L 28.403 20.23 L 28.403 24.468 L 24.165 24.468 L 24.165 20.444 L 21.96 20.444 L 21.96 18.025 L 24.379 18.025 L 24.379 20.23 L 24.379 20.23 L 24.379 20.23 Z  M 12.755 10.575 L 16.844 10.575 L 16.844 14.704 L 12.755 14.704 L 12.755 10.575 L 12.755 10.575 L 12.755 10.575 Z  M 22.932 5.773 L 25.308 5.773 L 25.308 8.172 L 22.932 8.172 L 22.932 5.773 L 22.932 5.773 L 22.932 5.773 Z  M 19.914 2.776 L 22.916 2.776 L 22.916 5.808 L 19.914 5.808 L 19.914 2.776 L 19.914 2.776 L 19.914 2.776 Z  M 2.187 4.124 L 3.737 4.124 L 3.737 5.69 L 2.187 5.69 L 2.187 4.124 L 2.187 4.124 L 2.187 4.124 Z  M 16.552 48.157 C 13.064 48.483 9.901 48.345 7.262 47.776 L 7.262 66.796 L 10.117 66.796 C 10.11 66.728 10.106 66.659 10.106 66.589 C 10.106 65.466 11.017 64.555 12.14 64.555 C 13.263 64.555 14.174 65.466 14.174 66.589 C 14.174 66.659 14.17 66.728 14.163 66.796 L 15.619 66.796 C 15.612 66.728 15.608 66.659 15.608 66.589 C 15.608 65.466 16.519 64.555 17.642 64.555 C 18.765 64.555 19.675 65.466 19.675 66.589 C 19.675 66.659 19.672 66.728 19.665 66.796 L 21.12 66.796 C 21.114 66.728 21.11 66.659 21.11 66.589 C 21.11 65.466 22.02 64.555 23.143 64.555 C 24.267 64.555 25.177 65.466 25.177 66.589 C 25.177 66.659 25.174 66.728 25.167 66.796 L 26.622 66.796 C 26.616 66.728 26.612 66.659 26.612 66.589 C 26.612 65.466 27.522 64.555 28.645 64.555 C 29.768 64.555 30.679 65.466 30.679 66.589 C 30.679 66.659 30.675 66.728 30.668 66.796 L 32.124 66.796 C 32.117 66.728 32.113 66.659 32.113 66.589 C 32.113 65.466 33.024 64.555 34.147 64.555 C 35.27 64.555 36.18 65.466 36.18 66.589 C 36.18 66.659 36.177 66.728 36.17 66.796 L 37.625 66.796 C 37.619 66.728 37.615 66.659 37.615 66.589 C 37.615 65.466 38.525 64.555 39.649 64.555 C 40.772 64.555 41.682 65.466 41.682 66.589 C 41.682 66.659 41.679 66.728 41.672 66.796 L 44.26 66.796 L 44.26 37.413 L 44.26 37.413 L 44.26 37.413 C 41.935 39.224 39.177 40.944 36.087 42.467 C 35.254 45.799 32.245 47.155 27.735 47.07 C 20.004 46.924 17.066 48.888 16.565 56.363 C 16.565 53.629 16.559 50.893 16.552 48.157 L 16.552 48.157 Z  M 10.559 0 L 13.924 0 L 13.924 3.293 L 16.165 3.293 L 16.165 5.769 L 13.713 5.769 L 13.713 3.293 L 10.559 3.293 L 10.559 0 L 10.559 0 L 10.559 0 Z  M 16.753 8.045 L 19.204 8.045 L 19.204 10.522 L 16.753 10.522 L 16.753 8.045 L 16.753 8.045 L 16.753 8.045 Z  M 9.512 7.392 L 12.359 7.392 L 12.359 10.267 L 9.512 10.267 L 9.512 7.392 L 9.512 7.392 L 9.512 7.392 Z  M 8.719 18.239 L 12.306 18.239 L 12.306 21.826 L 8.719 21.826 L 8.719 18.239 L 8.719 18.239 L 8.719 18.239 Z  M 18.706 22.328 L 20.847 22.328 L 20.847 24.468 L 18.706 24.468 L 18.706 22.328 L 18.706 22.328 L 18.706 22.328 Z  M 17.036 18.239 L 18.878 18.239 L 18.878 20.08 L 17.036 20.08 L 17.036 18.239 L 17.036 18.239 L 17.036 18.239 Z  M 36.314 41.189 C 39.286 39.756 41.965 38.141 44.26 36.434 C 50.423 31.853 53.823 26.61 52.643 22.419 C 51.904 19.796 49.478 17.967 45.947 16.997 C 45.671 17.253 45.542 17.637 45.636 18.007 C 47.691 18.596 49.091 19.596 49.599 21.007 C 50.508 23.531 48.383 26.86 44.26 30.128 L 44.26 13.814 L 41.64 13.814 C 41.667 13.949 41.682 14.087 41.682 14.23 C 41.682 15.353 40.772 16.263 39.649 16.263 C 38.525 16.263 37.615 15.353 37.615 14.23 C 37.615 14.087 37.63 13.949 37.658 13.814 L 36.138 13.814 C 36.166 13.949 36.18 14.087 36.18 14.23 C 36.18 15.353 35.27 16.263 34.147 16.263 C 33.024 16.263 32.113 15.353 32.113 14.23 C 32.113 14.087 32.128 13.949 32.156 13.814 L 30.636 13.814 C 30.664 13.949 30.679 14.087 30.679 14.23 C 30.679 15.353 29.768 16.263 28.645 16.263 C 27.522 16.263 26.612 15.353 26.612 14.23 C 26.612 14.087 26.626 13.949 26.654 13.814 L 25.135 13.814 C 25.162 13.949 25.177 14.087 25.177 14.23 C 25.177 15.353 24.267 16.263 23.143 16.263 C 22.02 16.263 21.11 15.353 21.11 14.23 C 21.11 14.087 21.125 13.949 21.152 13.814 L 19.633 13.814 C 19.661 13.949 19.675 14.087 19.675 14.23 C 19.675 15.353 18.765 16.263 17.642 16.263 C 17.342 16.263 17.057 16.199 16.801 16.082 L 16.801 18.218 L 12.348 18.218 L 12.348 16.253 C 12.28 16.259 12.21 16.263 12.14 16.263 C 11.017 16.263 10.106 15.353 10.106 14.23 C 10.106 14.087 10.121 13.949 10.149 13.814 L 7.262 13.814 L 7.262 13.814 L 7.262 41.054 C 4.878 40.495 3.252 39.442 2.695 37.897 C 1.995 35.952 3.098 33.527 5.529 31.02 C 5.512 30.613 5.267 30.241 4.876 30.092 C 4.79 30.059 4.7 30.039 4.609 30.031 C 1.061 33.657 -0.659 37.42 0.232 40.584 C 0.994 43.289 3.55 45.15 7.262 46.095 C 9.862 46.757 13.029 46.97 16.55 46.702 C 16.543 44.374 16.538 42.047 16.538 39.722 C 16.538 35.439 20.983 30.625 26.393 30.625 L 26.393 30.625 L 26.393 30.625 C 31.804 30.625 36.277 35.293 36.336 40.247 C 36.34 40.571 36.329 40.882 36.314 41.189 L 36.314 41.189 Z  M 19.981 49.632 C 22.669 47.382 26.537 47.577 26.692 47.763 C 26.848 47.949 26.358 51.791 23.671 54.04 C 20.983 56.29 16.96 55.909 16.96 55.909 C 16.96 55.909 17.293 51.881 19.981 49.632 L 19.981 49.632 Z " fill-rule="evenodd" fill="rgb(242,60,68)"/><path d=" M 61.649 20.493 L 71.155 20.493 C 74.362 20.493 76.768 21.354 78.372 23.075 C 79.976 24.796 80.778 27.319 80.778 30.644 L 80.778 34.693 C 80.778 38.018 79.976 40.541 78.372 42.263 C 76.768 43.984 74.362 44.845 71.155 44.845 L 68.103 44.845 L 68.103 61.568 L 61.649 61.568 L 61.649 20.493 Z  M 71.155 38.977 C 72.211 38.977 73.003 38.683 73.531 38.096 C 74.059 37.51 74.323 36.512 74.323 35.104 L 74.323 30.233 C 74.323 28.825 74.059 27.828 73.531 27.241 C 73.003 26.654 72.211 26.361 71.155 26.361 L 68.103 26.361 L 68.103 38.977 L 71.155 38.977 Z  M 84.299 20.493 L 93.863 20.493 C 97.188 20.493 99.614 21.266 101.139 22.811 C 102.665 24.356 103.428 26.732 103.428 29.94 L 103.428 32.464 C 103.428 36.727 102.02 39.427 99.203 40.561 L 99.203 40.678 C 100.768 41.148 101.873 42.106 102.518 43.553 C 103.164 45.001 103.487 46.938 103.487 49.363 L 103.487 56.58 C 103.487 57.754 103.526 58.702 103.604 59.426 C 103.682 60.15 103.878 60.864 104.191 61.568 L 97.619 61.568 C 97.384 60.903 97.227 60.277 97.149 59.69 C 97.071 59.104 97.032 58.047 97.032 56.522 L 97.032 49.011 C 97.032 47.133 96.729 45.823 96.122 45.079 C 95.516 44.336 94.47 43.964 92.983 43.964 L 90.753 43.964 L 90.753 61.568 L 84.299 61.568 L 84.299 20.493 Z  M 93.1 38.097 C 94.391 38.097 95.36 37.764 96.005 37.099 C 96.651 36.434 96.973 35.319 96.973 33.754 L 96.973 30.586 C 96.973 29.099 96.709 28.023 96.181 27.358 C 95.653 26.693 94.822 26.361 93.687 26.361 L 90.753 26.361 L 90.753 38.097 L 93.1 38.097 Z  M 117.276 62.155 C 114.107 62.155 111.682 61.255 110 59.456 C 108.318 57.656 107.477 55.113 107.477 51.827 L 107.477 30.233 C 107.477 26.947 108.318 24.405 110 22.605 C 111.682 20.806 114.107 19.906 117.276 19.906 C 120.445 19.906 122.87 20.806 124.552 22.605 C 126.234 24.405 127.075 26.947 127.075 30.233 L 127.075 51.827 C 127.075 55.113 126.234 57.656 124.552 59.456 C 122.87 61.255 120.445 62.155 117.276 62.155 Z  M 117.276 56.287 C 119.506 56.287 120.621 54.937 120.621 52.238 L 120.621 29.823 C 120.621 27.124 119.506 25.774 117.276 25.774 C 115.046 25.774 113.931 27.124 113.931 29.823 L 113.931 52.238 C 113.931 54.937 115.046 56.287 117.276 56.287 Z  M 131.417 20.493 L 140.63 20.493 L 144.737 49.891 L 144.855 49.891 L 148.962 20.493 L 158.175 20.493 L 158.175 61.568 L 152.072 61.568 L 152.072 30.468 L 151.955 30.468 L 147.261 61.568 L 141.862 61.568 L 137.168 30.468 L 137.051 30.468 L 137.051 61.568 L 131.417 61.568 L 131.417 20.493 Z  M 172.317 62.155 C 169.148 62.155 166.723 61.255 165.04 59.456 C 163.358 57.656 162.517 55.113 162.517 51.827 L 162.517 30.233 C 162.517 26.947 163.358 24.405 165.04 22.605 C 166.723 20.806 169.148 19.906 172.317 19.906 C 175.485 19.906 177.91 20.806 179.593 22.605 C 181.275 24.405 182.116 26.947 182.116 30.233 L 182.116 51.827 C 182.116 55.113 181.275 57.656 179.593 59.456 C 177.91 61.255 175.485 62.155 172.317 62.155 Z  M 172.317 56.287 C 174.546 56.287 175.661 54.937 175.661 52.238 L 175.661 29.823 C 175.661 27.124 174.546 25.774 172.317 25.774 C 170.087 25.774 168.972 27.124 168.972 29.823 L 168.972 52.238 C 168.972 54.937 170.087 56.287 172.317 56.287 Z  M 191.27 26.361 L 184.522 26.361 L 184.522 20.493 L 204.473 20.493 L 204.473 26.361 L 197.724 26.361 L 197.724 61.568 L 191.27 61.568 L 191.27 26.361 Z  M 207.582 20.493 L 214.037 20.493 L 214.037 61.568 L 207.582 61.568 L 207.582 20.493 Z  M 227.944 62.155 C 224.854 62.155 222.497 61.275 220.873 59.514 C 219.25 57.754 218.438 55.27 218.438 52.062 L 218.438 29.999 C 218.438 26.791 219.25 24.307 220.873 22.547 C 222.497 20.786 224.854 19.906 227.944 19.906 C 231.034 19.906 233.391 20.786 235.015 22.547 C 236.638 24.307 237.45 26.791 237.45 29.999 L 237.45 34.341 L 231.347 34.341 L 231.347 29.588 C 231.347 27.045 230.271 25.774 228.12 25.774 C 225.968 25.774 224.893 27.045 224.893 29.588 L 224.893 52.531 C 224.893 55.035 225.968 56.287 228.12 56.287 C 230.271 56.287 231.347 55.035 231.347 52.531 L 231.347 46.253 L 237.45 46.253 L 237.45 52.062 C 237.45 55.27 236.638 57.754 235.015 59.514 C 233.391 61.275 231.034 62.155 227.944 62.155 Z " fill-rule="evenodd" fill="rgb(0,0,0)"/></g></svg>