<?xml version="1.0" standalone="no"?><!-- Generator: Gravit.io --><svg xmlns="http://www.w3.org/2000/svg" xmlns:xlink="http://www.w3.org/1999/xlink" style="isolation:isolate" viewBox="0 0 58.64 86.323" width="58.64" height="86.323"><defs><clipPath id="_clipPath_mRa6BkbhD7gkSzI29ncsIEdJpBg5imoL"><rect width="58.64" height="86.323"/></clipPath></defs><g clip-path="url(#_clipPath_mRa6BkbhD7gkSzI29ncsIEdJpBg5imoL)"><path d=" M 6.62 5.691 L 9.072 5.691 L 9.072 8.167 L 6.62 8.167 L 6.62 5.691 L 6.62 5.691 L 6.62 5.691 L 6.62 5.691 Z  M 28.195 35.506 C 30.619 35.506 32.583 37.303 32.583 39.52 C 32.583 41.737 30.619 43.534 28.195 43.534 C 27.283 43.534 26.435 43.279 25.733 42.843 L 25.733 36.197 C 26.435 35.761 27.283 35.506 28.195 35.506 L 28.195 35.506 L 28.195 35.506 L 28.195 35.506 Z  M 9.072 3.331 L 11.39 3.331 L 11.39 5.672 L 9.072 5.672 L 9.072 3.331 L 9.072 3.331 L 9.072 3.331 L 9.072 3.331 Z  M 27.262 20.23 L 31.286 20.23 L 31.286 24.468 L 27.048 24.468 L 27.048 20.444 L 24.843 20.444 L 24.843 18.025 L 27.262 18.025 L 27.262 20.23 L 27.262 20.23 L 27.262 20.23 L 27.262 20.23 Z  M 15.638 10.575 L 19.727 10.575 L 19.727 14.704 L 15.638 14.704 L 15.638 10.575 L 15.638 10.575 L 15.638 10.575 L 15.638 10.575 Z  M 25.815 5.773 L 28.191 5.773 L 28.191 8.172 L 25.815 8.172 L 25.815 5.773 L 25.815 5.773 L 25.815 5.773 L 25.815 5.773 Z  M 22.796 2.776 L 25.799 2.776 L 25.799 5.808 L 22.796 5.808 L 22.796 2.776 L 22.796 2.776 L 22.796 2.776 L 22.796 2.776 Z  M 5.07 4.124 L 6.62 4.124 L 6.62 5.69 L 5.07 5.69 L 5.07 4.124 L 5.07 4.124 L 5.07 4.124 L 5.07 4.124 Z  M 19.435 48.157 C 15.946 48.483 12.784 48.345 10.145 47.776 L 10.145 66.796 L 13 66.796 C 12.993 66.728 12.989 66.659 12.989 66.589 C 12.989 65.466 13.9 64.555 15.023 64.555 C 16.146 64.555 17.057 65.466 17.057 66.589 C 17.057 66.659 17.053 66.728 17.046 66.796 L 18.501 66.796 C 18.495 66.728 18.491 66.659 18.491 66.589 C 18.491 65.466 19.401 64.555 20.525 64.555 C 21.648 64.555 22.558 65.466 22.558 66.589 C 22.558 66.659 22.555 66.728 22.548 66.796 L 24.003 66.796 C 23.997 66.728 23.993 66.659 23.993 66.589 C 23.993 65.466 24.903 64.555 26.026 64.555 C 27.149 64.555 28.06 65.466 28.06 66.589 C 28.06 66.659 28.056 66.728 28.049 66.796 L 29.505 66.796 C 29.498 66.728 29.494 66.659 29.494 66.589 C 29.494 65.466 30.405 64.555 31.528 64.555 C 32.651 64.555 33.562 65.466 33.562 66.589 C 33.562 66.659 33.558 66.728 33.551 66.796 L 35.007 66.796 C 35 66.728 34.996 66.659 34.996 66.589 C 34.996 65.466 35.907 64.555 37.03 64.555 C 38.153 64.555 39.063 65.466 39.063 66.589 C 39.063 66.659 39.06 66.728 39.053 66.796 L 40.508 66.796 C 40.502 66.728 40.498 66.659 40.498 66.589 C 40.498 65.466 41.408 64.555 42.531 64.555 C 43.655 64.555 44.565 65.466 44.565 66.589 C 44.565 66.659 44.562 66.728 44.555 66.796 L 47.143 66.796 L 47.143 37.413 L 47.143 37.413 C 44.818 39.224 42.06 40.944 38.97 42.467 C 38.137 45.799 35.128 47.155 30.617 47.07 C 22.887 46.924 19.949 48.888 19.448 56.363 C 19.448 53.629 19.441 50.893 19.435 48.157 L 19.435 48.157 L 19.435 48.157 Z  M 13.442 0 L 16.807 0 L 16.807 3.293 L 19.048 3.293 L 19.048 5.769 L 16.596 5.769 L 16.596 3.293 L 13.442 3.293 L 13.442 0 L 13.442 0 L 13.442 0 L 13.442 0 Z  M 19.635 8.045 L 22.087 8.045 L 22.087 10.522 L 19.635 10.522 L 19.635 8.045 L 19.635 8.045 L 19.635 8.045 L 19.635 8.045 Z  M 12.395 7.392 L 15.242 7.392 L 15.242 10.267 L 12.395 10.267 L 12.395 7.392 L 12.395 7.392 L 12.395 7.392 L 12.395 7.392 Z  M 11.602 18.239 L 15.188 18.239 L 15.188 21.826 L 11.602 21.826 L 11.602 18.239 L 11.602 18.239 L 11.602 18.239 L 11.602 18.239 Z  M 21.589 22.328 L 23.73 22.328 L 23.73 24.468 L 21.589 24.468 L 21.589 22.328 L 21.589 22.328 L 21.589 22.328 L 21.589 22.328 Z  M 19.919 18.239 L 21.76 18.239 L 21.76 20.08 L 19.919 20.08 L 19.919 18.239 L 19.919 18.239 L 19.919 18.239 L 19.919 18.239 Z  M 39.197 41.189 C 42.169 39.756 44.848 38.141 47.143 36.434 C 53.306 31.853 56.706 26.61 55.526 22.419 C 54.787 19.796 52.361 17.967 48.83 16.997 C 48.554 17.253 48.425 17.637 48.519 18.007 C 50.574 18.596 51.974 19.596 52.482 21.007 C 53.391 23.531 51.266 26.86 47.143 30.128 L 47.143 13.814 L 44.522 13.814 C 44.55 13.949 44.565 14.087 44.565 14.23 C 44.565 15.353 43.655 16.263 42.531 16.263 C 41.408 16.263 40.498 15.353 40.498 14.23 C 40.498 14.087 40.513 13.949 40.54 13.814 L 39.021 13.814 C 39.049 13.949 39.063 14.087 39.063 14.23 C 39.063 15.353 38.153 16.263 37.03 16.263 C 35.907 16.263 34.996 15.353 34.996 14.23 C 34.996 14.087 35.011 13.949 35.039 13.814 L 33.519 13.814 C 33.547 13.949 33.562 14.087 33.562 14.23 C 33.562 15.353 32.651 16.263 31.528 16.263 C 30.405 16.263 29.494 15.353 29.494 14.23 C 29.494 14.087 29.509 13.949 29.537 13.814 L 28.017 13.814 C 28.045 13.949 28.06 14.087 28.06 14.23 C 28.06 15.353 27.149 16.263 26.026 16.263 C 24.903 16.263 23.993 15.353 23.993 14.23 C 23.993 14.087 24.007 13.949 24.035 13.814 L 22.516 13.814 C 22.544 13.949 22.558 14.087 22.558 14.23 C 22.558 15.353 21.648 16.263 20.525 16.263 C 20.225 16.263 19.94 16.199 19.684 16.082 L 19.684 18.218 L 15.231 18.218 L 15.231 16.253 C 15.163 16.259 15.093 16.263 15.023 16.263 C 13.9 16.263 12.989 15.353 12.989 14.23 C 12.989 14.087 13.004 13.949 13.032 13.814 L 10.145 13.814 L 10.145 13.814 L 10.145 41.054 C 7.76 40.495 6.135 39.442 5.578 37.897 C 4.878 35.952 5.981 33.527 8.412 31.02 C 8.394 30.613 8.15 30.241 7.759 30.092 C 7.673 30.059 7.583 30.039 7.492 30.031 C 3.944 33.657 2.224 37.42 3.115 40.584 C 3.877 43.289 6.433 45.15 10.145 46.095 C 12.745 46.757 15.912 46.97 19.432 46.702 C 19.426 44.374 19.421 42.047 19.421 39.722 C 19.421 35.439 23.866 30.625 29.276 30.625 L 29.276 30.625 L 29.276 30.625 C 34.687 30.625 39.16 35.293 39.219 40.247 C 39.222 40.571 39.212 40.882 39.197 41.189 L 39.197 41.189 L 39.197 41.189 Z  M 22.864 49.632 C 25.551 47.382 29.42 47.577 29.575 47.763 C 29.731 47.949 29.241 51.791 26.554 54.04 C 23.866 56.29 19.843 55.909 19.843 55.909 C 19.843 55.909 20.176 51.881 22.864 49.632 Z " fill-rule="evenodd" fill="rgb(242,60,68)"/><path d=" M 0 72.427 L 3.171 72.427 C 4.241 72.427 5.043 72.714 5.578 73.288 C 6.113 73.862 6.381 74.704 6.381 75.813 L 6.381 77.164 C 6.381 78.273 6.113 79.114 5.578 79.688 C 5.043 80.263 4.241 80.55 3.171 80.55 L 2.153 80.55 L 2.153 86.128 L 0 86.128 L 0 72.427 L 0 72.427 Z  M 3.171 78.592 C 3.523 78.592 3.787 78.494 3.963 78.299 C 4.14 78.103 4.228 77.77 4.228 77.301 L 4.228 75.676 C 4.228 75.206 4.14 74.874 3.963 74.678 C 3.787 74.482 3.523 74.384 3.171 74.384 L 2.153 74.384 L 2.153 78.593 L 3.171 78.592 L 3.171 78.592 Z  M 7.555 72.427 L 10.746 72.427 C 11.855 72.427 12.664 72.685 13.173 73.2 C 13.681 73.716 13.936 74.508 13.936 75.578 L 13.936 76.42 C 13.936 77.842 13.466 78.743 12.527 79.121 L 12.527 79.16 C 13.048 79.317 13.417 79.636 13.632 80.119 C 13.848 80.602 13.956 81.248 13.956 82.057 L 13.956 84.464 C 13.956 84.856 13.969 85.172 13.995 85.414 C 14.021 85.655 14.086 85.893 14.19 86.128 L 11.998 86.128 C 11.92 85.906 11.868 85.697 11.841 85.501 C 11.815 85.306 11.802 84.954 11.802 84.445 L 11.802 81.939 C 11.802 81.313 11.701 80.876 11.499 80.628 C 11.297 80.38 10.948 80.256 10.452 80.256 L 9.708 80.256 L 9.708 86.128 L 7.555 86.128 L 7.555 72.427 L 7.555 72.427 Z  M 10.491 78.299 C 10.922 78.299 11.245 78.188 11.46 77.966 C 11.675 77.744 11.783 77.373 11.783 76.85 L 11.783 75.794 C 11.783 75.298 11.695 74.939 11.519 74.717 C 11.343 74.495 11.065 74.384 10.687 74.384 L 9.708 74.384 L 9.708 78.299 L 10.491 78.299 L 10.491 78.299 Z  M 18.555 86.323 C 17.498 86.323 16.689 86.024 16.128 85.423 C 15.567 84.823 15.286 83.975 15.286 82.879 L 15.286 75.676 C 15.286 74.58 15.567 73.732 16.128 73.132 C 16.689 72.532 17.498 72.231 18.555 72.231 C 19.612 72.231 20.421 72.532 20.982 73.132 C 21.543 73.732 21.824 74.58 21.824 75.676 L 21.824 82.879 C 21.824 83.975 21.543 84.823 20.982 85.423 C 20.421 86.024 19.612 86.323 18.555 86.323 Z  M 18.555 84.366 C 19.299 84.366 19.67 83.916 19.67 83.016 L 19.67 75.539 C 19.67 74.639 19.299 74.189 18.555 74.189 C 17.811 74.189 17.439 74.639 17.439 75.539 L 17.439 83.016 C 17.439 83.916 17.811 84.366 18.555 84.366 Z  M 23.272 72.427 L 26.345 72.427 L 27.715 82.233 L 27.754 82.233 L 29.124 72.427 L 32.197 72.427 L 32.197 86.128 L 30.162 86.128 L 30.162 75.755 L 30.122 75.755 L 28.557 86.128 L 26.756 86.128 L 25.19 75.755 L 25.151 75.755 L 25.151 86.128 L 23.272 86.128 L 23.272 72.427 L 23.272 72.427 Z  M 36.914 86.323 C 35.857 86.323 35.048 86.024 34.487 85.423 C 33.926 84.823 33.646 83.975 33.646 82.879 L 33.646 75.676 C 33.646 74.58 33.926 73.732 34.487 73.132 C 35.048 72.532 35.857 72.231 36.914 72.231 C 37.971 72.231 38.78 72.532 39.341 73.132 C 39.902 73.732 40.183 74.58 40.183 75.676 L 40.183 82.879 C 40.183 83.975 39.902 84.823 39.341 85.423 C 38.78 86.024 37.971 86.323 36.914 86.323 Z  M 36.914 84.366 C 37.658 84.366 38.03 83.916 38.03 83.016 L 38.03 75.539 C 38.03 74.639 37.658 74.189 36.914 74.189 C 36.17 74.189 35.798 74.639 35.798 75.539 L 35.798 83.016 C 35.798 83.916 36.17 84.366 36.914 84.366 Z  M 43.236 74.384 L 40.985 74.384 L 40.985 72.427 L 47.64 72.427 L 47.64 74.384 L 45.389 74.384 L 45.389 86.128 L 43.236 86.128 L 43.236 74.384 L 43.236 74.384 Z  M 48.677 72.427 L 50.83 72.427 L 50.83 86.128 L 48.677 86.128 L 48.677 72.427 L 48.677 72.427 Z  M 55.469 86.323 C 54.438 86.323 53.652 86.03 53.11 85.443 C 52.569 84.856 52.298 84.027 52.298 82.957 L 52.298 75.598 C 52.298 74.528 52.569 73.699 53.11 73.112 C 53.652 72.525 54.438 72.231 55.469 72.231 C 56.5 72.231 57.286 72.525 57.827 73.112 C 58.369 73.699 58.64 74.528 58.64 75.598 L 58.64 77.046 L 56.604 77.046 L 56.604 75.461 C 56.604 74.613 56.245 74.189 55.528 74.189 C 54.81 74.189 54.451 74.613 54.451 75.461 L 54.451 83.114 C 54.451 83.949 54.81 84.366 55.528 84.366 C 56.245 84.366 56.604 83.949 56.604 83.114 L 56.604 81.019 L 58.64 81.019 L 58.64 82.957 C 58.64 84.027 58.369 84.856 57.827 85.443 C 57.286 86.03 56.5 86.323 55.469 86.323 L 55.469 86.323 L 55.469 86.323 Z " fill-rule="evenodd" fill="rgb(0,0,0)"/></g></svg>