<?xml version="1.0" standalone="no"?><!-- Generator: Gravit.io --><svg xmlns="http://www.w3.org/2000/svg" xmlns:xlink="http://www.w3.org/1999/xlink" style="isolation:isolate" viewBox="0 0 58.64 72" width="58.64" height="72"><defs><clipPath id="_clipPath_ZLZkn375CgApzAu6rDbM3bXdPetbisU3"><rect width="58.64" height="72"/></clipPath></defs><g clip-path="url(#_clipPath_ZLZkn375CgApzAu6rDbM3bXdPetbisU3)"><path d=" M 5.321 6.708 L 7.913 6.708 L 7.913 9.326 L 5.321 9.326 L 5.321 6.708 L 5.321 6.708 L 5.321 6.708 L 5.321 6.708 Z  M 28.13 38.229 C 30.693 38.229 32.769 40.128 32.769 42.472 C 32.769 44.816 30.693 46.716 28.13 46.716 C 27.166 46.716 26.269 46.446 25.527 45.985 L 25.527 38.959 C 26.269 38.498 27.166 38.229 28.13 38.229 L 28.13 38.229 L 28.13 38.229 L 28.13 38.229 Z  M 7.913 4.213 L 10.364 4.213 L 10.364 6.688 L 7.913 6.688 L 7.913 4.213 L 7.913 4.213 L 7.913 4.213 L 7.913 4.213 Z  M 27.144 22.079 L 31.398 22.079 L 31.398 26.559 L 26.918 26.559 L 26.918 22.305 L 24.586 22.305 L 24.586 19.748 L 27.144 19.748 L 27.144 22.079 L 27.144 22.079 L 27.144 22.079 L 27.144 22.079 Z  M 14.855 11.871 L 19.178 11.871 L 19.178 16.237 L 14.855 16.237 L 14.855 11.871 L 14.855 11.871 L 14.855 11.871 L 14.855 11.871 Z  M 25.614 6.795 L 28.126 6.795 L 28.126 9.331 L 25.614 9.331 L 25.614 6.795 L 25.614 6.795 L 25.614 6.795 L 25.614 6.795 Z  M 22.422 3.626 L 25.597 3.626 L 25.597 6.832 L 22.422 6.832 L 22.422 3.626 L 22.422 3.626 L 22.422 3.626 L 22.422 3.626 Z  M 3.682 5.051 L 5.321 5.051 L 5.321 6.707 L 3.682 6.707 L 3.682 5.051 L 3.682 5.051 L 3.682 5.051 L 3.682 5.051 Z  M 18.869 51.603 C 15.18 51.948 11.838 51.802 9.048 51.201 L 9.048 71.309 L 12.066 71.309 C 12.058 71.237 12.054 71.164 12.054 71.09 C 12.054 69.903 13.017 68.939 14.205 68.939 C 15.392 68.939 16.355 69.903 16.355 71.09 C 16.355 71.164 16.351 71.237 16.343 71.309 L 17.882 71.309 C 17.875 71.237 17.871 71.164 17.871 71.09 C 17.871 69.903 18.833 68.939 20.021 68.939 C 21.209 68.939 22.171 69.903 22.171 71.09 C 22.171 71.164 22.167 71.237 22.16 71.309 L 23.698 71.309 C 23.692 71.237 23.688 71.164 23.688 71.09 C 23.688 69.903 24.65 68.939 25.837 68.939 C 27.024 68.939 27.987 69.903 27.987 71.09 C 27.987 71.164 27.983 71.237 27.976 71.309 L 29.515 71.309 C 29.508 71.237 29.503 71.164 29.503 71.09 C 29.503 69.903 30.467 68.939 31.654 68.939 C 32.841 68.939 33.804 69.903 33.804 71.09 C 33.804 71.164 33.8 71.237 33.793 71.309 L 35.332 71.309 C 35.324 71.237 35.32 71.164 35.32 71.09 C 35.32 69.903 36.283 68.939 37.471 68.939 C 38.658 68.939 39.62 69.903 39.62 71.09 C 39.62 71.164 39.617 71.237 39.609 71.309 L 41.148 71.309 C 41.141 71.237 41.137 71.164 41.137 71.09 C 41.137 69.903 42.099 68.939 43.286 68.939 C 44.475 68.939 45.437 69.903 45.437 71.09 C 45.437 71.164 45.433 71.237 45.426 71.309 L 48.162 71.309 L 48.162 40.245 L 48.162 40.245 C 45.704 42.159 42.788 43.978 39.522 45.588 C 38.641 49.11 35.46 50.544 30.691 50.454 C 22.518 50.3 19.412 52.376 18.883 60.279 C 18.883 57.388 18.875 54.496 18.869 51.603 L 18.869 51.603 L 18.869 51.603 Z  M 12.533 0.691 L 16.091 0.691 L 16.091 4.173 L 18.46 4.173 L 18.46 6.79 L 15.868 6.79 L 15.868 4.173 L 12.533 4.173 L 12.533 0.691 L 12.533 0.691 L 12.533 0.691 L 12.533 0.691 Z  M 19.08 9.197 L 21.673 9.197 L 21.673 11.815 L 19.08 11.815 L 19.08 9.197 L 19.08 9.197 L 19.08 9.197 L 19.08 9.197 Z  M 11.426 8.506 L 14.436 8.506 L 14.436 11.546 L 11.426 11.546 L 11.426 8.506 L 11.426 8.506 L 11.426 8.506 L 11.426 8.506 Z  M 10.588 19.974 L 14.379 19.974 L 14.379 23.766 L 10.588 23.766 L 10.588 19.974 L 10.588 19.974 L 10.588 19.974 L 10.588 19.974 Z  M 21.146 24.297 L 23.41 24.297 L 23.41 26.559 L 21.146 26.559 L 21.146 24.297 L 21.146 24.297 L 21.146 24.297 L 21.146 24.297 Z  M 19.381 19.974 L 21.327 19.974 L 21.327 21.92 L 19.381 21.92 L 19.381 19.974 L 19.381 19.974 L 19.381 19.974 L 19.381 19.974 Z  M 39.762 44.237 C 42.904 42.722 45.736 41.014 48.162 39.21 C 54.678 34.367 58.272 28.824 57.025 24.393 C 56.243 21.62 53.679 19.686 49.946 18.661 C 49.654 18.931 49.517 19.337 49.617 19.729 C 51.789 20.351 53.269 21.408 53.807 22.9 C 54.768 25.569 52.521 29.088 48.162 32.543 L 48.162 15.296 L 45.391 15.296 C 45.421 15.438 45.437 15.584 45.437 15.735 C 45.437 16.923 44.475 17.885 43.286 17.885 C 42.099 17.885 41.137 16.923 41.137 15.735 C 41.137 15.584 41.153 15.438 41.181 15.296 L 39.575 15.296 C 39.605 15.438 39.62 15.584 39.62 15.735 C 39.62 16.923 38.658 17.885 37.471 17.885 C 36.283 17.885 35.32 16.923 35.32 15.735 C 35.32 15.584 35.336 15.438 35.366 15.296 L 33.759 15.296 C 33.788 15.438 33.804 15.584 33.804 15.735 C 33.804 16.923 32.841 17.885 31.654 17.885 C 30.467 17.885 29.503 16.923 29.503 15.735 C 29.503 15.584 29.519 15.438 29.549 15.296 L 27.942 15.296 C 27.972 15.438 27.987 15.584 27.987 15.735 C 27.987 16.923 27.024 17.885 25.837 17.885 C 24.65 17.885 23.688 16.923 23.688 15.735 C 23.688 15.584 23.703 15.438 23.732 15.296 L 22.126 15.296 C 22.156 15.438 22.171 15.584 22.171 15.735 C 22.171 16.923 21.209 17.885 20.021 17.885 C 19.704 17.885 19.403 17.817 19.132 17.693 L 19.132 19.952 L 14.424 19.952 L 14.424 17.874 C 14.353 17.881 14.279 17.885 14.205 17.885 C 13.017 17.885 12.054 16.923 12.054 15.735 C 12.054 15.584 12.07 15.438 12.1 15.296 L 9.048 15.296 L 9.048 15.296 L 9.048 44.094 C 6.526 43.503 4.808 42.39 4.219 40.756 C 3.479 38.7 4.645 36.136 7.215 33.486 C 7.196 33.056 6.938 32.662 6.525 32.505 C 6.434 32.47 6.339 32.449 6.243 32.44 C 2.492 36.274 0.673 40.252 1.615 43.597 C 2.421 46.457 5.123 48.424 9.048 49.423 C 11.796 50.123 15.144 50.348 18.866 50.065 C 18.859 47.604 18.854 45.144 18.854 42.686 C 18.854 38.158 23.553 33.068 29.273 33.068 L 29.273 33.068 L 29.273 33.068 C 34.994 33.068 39.722 38.003 39.785 43.241 C 39.788 43.583 39.777 43.912 39.762 44.237 L 39.762 44.237 L 39.762 44.237 Z  M 22.494 53.163 C 25.335 50.784 29.425 50.99 29.589 51.187 C 29.754 51.383 29.236 55.445 26.395 57.823 C 23.553 60.202 19.3 59.799 19.3 59.799 C 19.3 59.799 19.652 55.54 22.494 53.163 Z " fill-rule="evenodd" fill="rgb(242,60,68)"/></g></svg>